<?xml version="1.0" encoding="UTF-8"?>
<svg width="221px" height="95px" viewBox="0 0 221 95" version="1.1" xmlns="http://www.w3.org/2000/svg" xmlns:xlink="http://www.w3.org/1999/xlink">
    <!-- Generator: Sketch 54.1 (76490) - https://sketchapp.com -->
    <title>profile</title>
    <desc>Created with Sketch.</desc>
    <defs>
        <linearGradient x1="2.32621672%" y1="39.2420931%" x2="100%" y2="61.3894628%" id="linearGradient-1">
            <stop stop-color="#F5F5F5" offset="0%"></stop>
            <stop stop-color="#E8E8E8" offset="100%"></stop>
        </linearGradient>
        <path d="M3,0 L129,0 C130.656854,-3.04359188e-16 132,1.34314575 132,3 L132,63 L0,63 L0,3 C-2.02906125e-16,1.34314575 1.34314575,3.04359188e-16 3,0 Z" id="path-2"></path>
        <filter x="-9.5%" y="-18.3%" width="118.9%" height="139.7%" filterUnits="objectBoundingBox" id="filter-4">
            <feOffset dx="0" dy="1" in="SourceAlpha" result="shadowOffsetOuter1"></feOffset>
            <feGaussianBlur stdDeviation="4" in="shadowOffsetOuter1" result="shadowBlurOuter1"></feGaussianBlur>
            <feColorMatrix values="0 0 0 0 0   0 0 0 0 0   0 0 0 0 0  0 0 0 0.5 0" type="matrix" in="shadowBlurOuter1"></feColorMatrix>
        </filter>
        <linearGradient x1="2.32621672%" y1="29.0100198%" x2="100%" y2="72.2222222%" id="linearGradient-5">
            <stop stop-color="#F5F5F5" offset="0%"></stop>
            <stop stop-color="#E8E8E8" offset="100%"></stop>
        </linearGradient>
        <path d="M3,0 L129,0 C130.656854,-3.04359188e-16 132,1.34314575 132,3 L132,88 L0,88 L0,3 C-2.02906125e-16,1.34314575 1.34314575,3.04359188e-16 3,0 Z" id="path-6"></path>
        <filter x="-9.5%" y="-13.1%" width="118.9%" height="128.4%" filterUnits="objectBoundingBox" id="filter-7">
            <feOffset dx="0" dy="1" in="SourceAlpha" result="shadowOffsetOuter1"></feOffset>
            <feGaussianBlur stdDeviation="4" in="shadowOffsetOuter1" result="shadowBlurOuter1"></feGaussianBlur>
            <feColorMatrix values="0 0 0 0 0   0 0 0 0 0   0 0 0 0 0  0 0 0 0.5 0" type="matrix" in="shadowBlurOuter1"></feColorMatrix>
        </filter>
        <rect id="path-8" x="0" y="0" width="11" height="11" rx="3"></rect>
    </defs>
    <g id="评论模块2.0" stroke="none" stroke-width="1" fill="none" fill-rule="evenodd">
        <g id="Group-9" transform="translate(-1018.000000, -26.000000)">
            <g id="profile" transform="translate(1026.000000, 33.000000)">
                <g id="Group-18" transform="translate(73.000000, 25.000000)">
                    <mask id="mask-3" fill="white">
                        <use xlink:href="#path-2"></use>
                    </mask>
                    <g id="Rectangle-Copy-9">
                        <use fill="black" fill-opacity="1" filter="url(#filter-4)" xlink:href="#path-2"></use>
                        <use fill="url(#linearGradient-1)" fill-rule="evenodd" xlink:href="#path-2"></use>
                    </g>
                    <rect id="Rectangle" fill="#FFFFFF" mask="url(#mask-3)" x="6" y="6" width="120" height="15" rx="3"></rect>
                    <rect id="Rectangle-Copy" fill="#FFFFFF" mask="url(#mask-3)" x="6" y="37" width="91" height="43" rx="3"></rect>
                    <rect id="Rectangle-Copy-20" fill="#FFFFFF" mask="url(#mask-3)" x="6" y="25" width="30" height="8" rx="3"></rect>
                    <rect id="Rectangle-Copy-21" fill="#FFFFFF" mask="url(#mask-3)" x="40" y="25" width="57" height="8" rx="3"></rect>
                    <rect id="Rectangle-Copy-8" fill="#EEEEEE" mask="url(#mask-3)" x="12" y="48" width="66" height="3" rx="1.5"></rect>
                    <rect id="Rectangle-Copy-17" fill="#EEEEEE" mask="url(#mask-3)" x="12" y="57" width="56" height="3" rx="1.5"></rect>
                    <rect id="Rectangle-Copy-2" fill="#FFFFFF" mask="url(#mask-3)" x="101" y="25" width="25" height="55" rx="3"></rect>
                    <circle id="Oval" stroke="#B3E5FC" stroke-width="4" fill="#FFFFFF" mask="url(#mask-3)" cx="113.5" cy="39.5" r="6.5"></circle>
                    <path d="M124.5,39.5 L113.593754,39.5 L114.041757,29 L115,29 C120.246705,29 124.5,33.2532949 124.5,38.5 L124.5,39.5 Z" id="Oval-Copy" stroke="#FFFFFF" stroke-width="2" fill="#00E676" mask="url(#mask-3)"></path>
                </g>
                <g id="Group-18-Copy">
                    <g id="Rectangle-Copy-9">
                        <use fill="black" fill-opacity="1" filter="url(#filter-7)" xlink:href="#path-6"></use>
                        <use fill="url(#linearGradient-5)" fill-rule="evenodd" xlink:href="#path-6"></use>
                    </g>
                    <rect id="Rectangle" fill="#FFFFFF" x="6" y="6" width="120" height="15" rx="3"></rect>
                    <rect id="Rectangle-Copy-8" fill="#EEEEEE" transform="translate(106.500000, 13.500000) rotate(90.000000) translate(-106.500000, -13.500000) " x="103" y="12" width="7" height="3" rx="1.5"></rect>
                    <rect id="Rectangle-Copy-15" fill="#EEEEEE" transform="translate(112.500000, 13.500000) rotate(90.000000) translate(-112.500000, -13.500000) " x="110" y="12" width="5" height="3" rx="1.5"></rect>
                    <rect id="Rectangle-Copy-16" fill="#EEEEEE" transform="translate(118.500000, 13.500000) rotate(90.000000) translate(-118.500000, -13.500000) " x="114" y="12" width="9" height="3" rx="1.5"></rect>
                    <g id="Group-17" transform="translate(9.000000, 8.000000)">
                        <mask id="mask-9" fill="white">
                            <use xlink:href="#path-8"></use>
                        </mask>
                        <use id="Rectangle-Copy-8" fill="#EEEEEE" xlink:href="#path-8"></use>
                        <rect id="Rectangle-Copy-13" fill="#FFFFFF" mask="url(#mask-9)" x="3" y="2" width="5" height="5" rx="2.5"></rect>
                        <rect id="Rectangle-Copy-14" fill="#FFFFFF" mask="url(#mask-9)" x="1" y="7" width="9" height="9" rx="3.5"></rect>
                    </g>
                    <rect id="Rectangle-Copy" fill="#FFFFFF" x="6" y="25" width="20" height="40" rx="3"></rect>
                    <rect id="Rectangle-Copy-8" fill="#EEEEEE" x="8" y="29" width="15" height="3" rx="1.5"></rect>
                    <rect id="Rectangle-Copy-11" fill="#EEEEEE" x="8" y="35" width="10" height="3" rx="1.5"></rect>
                    <rect id="Rectangle-Copy-12" fill="#EEEEEE" x="8" y="41" width="7" height="3" rx="1.5"></rect>
                    <path d="M109,25 L123,25 C124.656854,25 126,26.3431458 126,28 L126,88 L106,88 L106,28 C106,26.3431458 107.343146,25 109,25 Z" id="Rectangle-Copy-2" fill="#FFFFFF"></path>
                    <g id="Group-13" transform="translate(30.000000, 25.000000)">
                        <rect id="Rectangle-Copy-3" fill="#FFFFFF" x="0" y="0" width="72" height="10" rx="3"></rect>
                        <rect id="Rectangle-Copy-7" fill="#69F0AE" x="4" y="3" width="10" height="4" rx="2"></rect>
                    </g>
                    <g id="Group-14" transform="translate(30.000000, 40.000000)">
                        <rect id="Rectangle-Copy-4" fill="#FFFFFF" x="0" y="0" width="72" height="10" rx="3"></rect>
                        <rect id="Rectangle-Copy-7" fill="#F48FB1" x="4" y="3" width="10" height="4" rx="2"></rect>
                    </g>
                    <g id="Group-15" transform="translate(30.000000, 55.000000)">
                        <rect id="Rectangle-Copy-5" fill="#FFFFFF" x="0" y="0" width="72" height="10" rx="3"></rect>
                        <rect id="Rectangle-Copy-7" fill="#FFAB40" x="3" y="3" width="10" height="4" rx="2"></rect>
                    </g>
                    <rect id="Rectangle-Copy-6" fill="#FFFFFF" x="30" y="70" width="72" height="10" rx="3"></rect>
                    <path d="M108.119157,63.8163928 L109.497248,61.2522654 C109.758705,60.7657894 110.365024,60.5833751 110.8515,60.8448317 C110.866346,60.8528106 110.880987,60.8611636 110.895411,60.8698826 L112.268424,61.6998597 C112.741065,61.9855679 113.355828,61.8340291 113.641536,61.3613884 C113.646445,61.3532678 113.651238,61.3450778 113.655914,61.3368208 L116.956942,55.5074218 C117.229082,55.0268406 117.839283,54.8578655 118.319864,55.1300054 C118.456736,55.2075125 118.573395,55.3162144 118.660362,55.4472798 L120.814885,58.6942954 C121.12024,59.1544873 121.740839,59.2800069 122.201031,58.9746515 C122.211659,58.967599 122.222152,58.9603438 122.232503,58.9528899 L122.706047,58.6118827 C123.078504,58.3436706 123.597868,58.4281772 123.86608,58.8006336 C123.967938,58.9420792 124.022743,59.1119708 124.022743,59.2862745 L124.022743,64.2898018 C124.022743,64.8420866 123.575028,65.2898018 123.022743,65.2898018 L109,65.2898018 C108.447715,65.2898018 108,64.8420866 108,64.2898018 C108,64.1245782 108.040939,63.9619289 108.119157,63.8163928 Z" id="Path" fill="#B3E5FC"></path>
                    <g id="Group-16" transform="translate(108.000000, 31.000000)">
                        <path d="M7.5,7.5 L7.5,0.5 C7.5,0.223857625 7.72385763,5.07265313e-17 8,6.16297582e-33 C8.27614237,-5.07265313e-17 8.5,0.223857625 8.5,0.5 L8.5,7.5 L15.5,7.5 C15.7761424,7.5 16,7.72385763 16,8 C16,8.27614237 15.7761424,8.5 15.5,8.5 L8.5,8.5 L8.5,15.5 C8.5,15.7761424 8.27614237,16 8,16 C7.72385763,16 7.5,15.7761424 7.5,15.5 L7.5,8.5 L0.5,8.5 C0.223857625,8.5 3.38176876e-17,8.27614237 0,8 C-3.38176876e-17,7.72385763 0.223857625,7.5 0.5,7.5 L7.5,7.5 Z" id="Combined-Shape" fill="#B3E5FC"></path>
                        <path d="M7.17294114,3.70429924 L3.00074855,7.38058886 C2.58637547,7.74570993 2.54644884,8.3776148 2.91156991,8.79198787 C2.97429201,8.8631707 3.0468248,8.92506552 3.12698691,8.97581089 L7.32178526,11.6312628 C7.70519776,11.8739761 8.20397483,11.8280998 8.53668074,11.5195197 L11.3776112,8.88459638 C11.75736,8.53238469 11.8053296,7.94850286 11.4881576,7.53903469 L8.62462145,3.84221654 C8.286418,3.40559672 7.65829963,3.32581448 7.22167981,3.66401794 C7.20501304,3.67692793 7.1887587,3.69036174 7.17294114,3.70429924 Z" id="Path-2" fill="#4FC3F7" opacity="0.5"></path>
                    </g>
                </g>
            </g>
        </g>
    </g>
</svg>